<svg width="60" height="60" viewBox="0 0 60 60" fill="none" xmlns="http://www.w3.org/2000/svg">
<rect width="60" height="60" rx="14" fill="url(#paint0_radial_105_435)"/>
<path d="M40.5 39C40.5 39 42 39 42 37.5C42 36 40.5 31.5 34.5 31.5C28.5 31.5 27 36 27 37.5C27 39 28.5 39 28.5 39H40.5ZM28.533 37.5C28.5219 37.4985 28.5109 37.4965 28.5 37.494C28.5015 37.098 28.7505 35.949 29.64 34.914C30.468 33.9435 31.923 33 34.5 33C37.0755 33 38.5305 33.945 39.36 34.914C40.2495 35.949 40.497 37.0995 40.5 37.494L40.488 37.497C40.481 37.4982 40.474 37.4992 40.467 37.5H28.533ZM34.5 28.5C35.2956 28.5 36.0587 28.1839 36.6213 27.6213C37.1839 27.0587 37.5 26.2957 37.5 25.5C37.5 24.7043 37.1839 23.9413 36.6213 23.3787C36.0587 22.8161 35.2956 22.5 34.5 22.5C33.7044 22.5 32.9413 22.8161 32.3787 23.3787C31.8161 23.9413 31.5 24.7043 31.5 25.5C31.5 26.2957 31.8161 27.0587 32.3787 27.6213C32.9413 28.1839 33.7044 28.5 34.5 28.5ZM39 25.5C39 26.091 38.8836 26.6761 38.6575 27.2221C38.4313 27.768 38.0998 28.2641 37.682 28.682C37.2641 29.0998 36.768 29.4313 36.2221 29.6575C35.6761 29.8836 35.0909 30 34.5 30C33.9091 30 33.3239 29.8836 32.7779 29.6575C32.232 29.4313 31.7359 29.0998 31.318 28.682C30.9002 28.2641 30.5687 27.768 30.3425 27.2221C30.1164 26.6761 30 26.091 30 25.5C30 24.3065 30.4741 23.1619 31.318 22.318C32.1619 21.4741 33.3065 21 34.5 21C35.6935 21 36.8381 21.4741 37.682 22.318C38.5259 23.1619 39 24.3065 39 25.5ZM28.404 31.92C27.804 31.7311 27.1854 31.6069 26.559 31.5495C26.207 31.516 25.8536 31.4995 25.5 31.5C19.5 31.5 18 36 18 37.5C18 38.5005 18.4995 39 19.5 39H25.824C25.6016 38.5317 25.4907 38.0183 25.5 37.5C25.5 35.985 26.0655 34.437 27.135 33.144C27.4995 32.703 27.924 32.2905 28.404 31.92ZM25.38 33C24.4922 34.3339 24.0127 35.8977 24 37.5H19.5C19.5 37.11 19.746 35.955 20.64 34.914C21.4575 33.96 22.878 33.03 25.38 33.0015V33ZM20.25 26.25C20.25 25.0565 20.7241 23.9119 21.568 23.068C22.4119 22.2241 23.5565 21.75 24.75 21.75C25.9435 21.75 27.0881 22.2241 27.932 23.068C28.7759 23.9119 29.25 25.0565 29.25 26.25C29.25 27.4435 28.7759 28.5881 27.932 29.432C27.0881 30.2759 25.9435 30.75 24.75 30.75C23.5565 30.75 22.4119 30.2759 21.568 29.432C20.7241 28.5881 20.25 27.4435 20.25 26.25ZM24.75 23.25C23.9543 23.25 23.1913 23.5661 22.6287 24.1287C22.0661 24.6913 21.75 25.4543 21.75 26.25C21.75 27.0457 22.0661 27.8087 22.6287 28.3713C23.1913 28.9339 23.9543 29.25 24.75 29.25C25.5457 29.25 26.3087 28.9339 26.8713 28.3713C27.4339 27.8087 27.75 27.0457 27.75 26.25C27.75 25.4543 27.4339 24.6913 26.8713 24.1287C26.3087 23.5661 25.5457 23.25 24.75 23.25Z" fill="white"/>
<defs>
<radialGradient id="paint0_radial_105_435" cx="0" cy="0" r="1" gradientUnits="userSpaceOnUse" gradientTransform="translate(30 5.05078e-06) rotate(90) scale(82 63.6207)">
<stop stop-color="#FFC400"/>
<stop offset="1" stop-color="#FF9900"/>
</radialGradient>
</defs>
</svg>
