<svg width="48" height="40" viewBox="0 0 48 40" fill="none" xmlns="http://www.w3.org/2000/svg">
<path d="M46.5948 10.8307C39.8582 9.06513 32.6026 5.37414 25.6125 0.157185C25.5055 0.0773413 25.3792 0.0257839 25.246 0.00746465C25.1127 -0.0108546 24.9769 0.00467976 24.8515 0.052576C17.7024 2.78555 10.4936 3.73266 4.00669 2.79005C3.85593 2.77044 3.70259 2.79386 3.5651 2.8575C3.4276 2.92113 3.3118 3.02229 3.2316 3.1488C3.1514 3.27531 3.11022 3.4218 3.113 3.57067C3.11579 3.71954 3.16241 3.86446 3.24728 3.98802C4.73771 6.0876 6.28042 8.10748 7.87541 10.0477C6.06478 10.071 4.2551 9.95405 2.46329 9.69804C2.31242 9.67798 2.15885 9.70107 2.02109 9.76453C1.88333 9.82799 1.76725 9.9291 1.68686 10.0557C1.60647 10.1823 1.56519 10.3289 1.56801 10.4779C1.57082 10.627 1.6176 10.772 1.70272 10.8956C2.92717 12.6199 4.19699 14.2765 5.49016 15.8962C3.95119 15.8818 2.41495 15.7658 0.891918 15.5491C0.741262 15.5299 0.588139 15.5536 0.450907 15.6174C0.313676 15.6812 0.19816 15.7825 0.118208 15.9089C0.0382565 16.0354 -0.00273713 16.1818 0.000141867 16.3305C0.00302086 16.4792 0.0496503 16.624 0.13444 16.7474C6.04888 25.2101 13.2742 32.7188 21.5502 39.0034C21.6572 39.0834 21.7835 39.1351 21.9169 39.1534C22.0503 39.1717 22.1862 39.1561 22.3116 39.108C30.4229 35.8905 37.751 31.0366 43.819 24.8623C43.913 24.7659 43.9799 24.6473 44.0133 24.5181C44.0467 24.3888 44.0454 24.2533 44.0096 24.1247C43.9737 23.9961 43.9046 23.8788 43.8088 23.7841C43.7129 23.6893 43.5938 23.6205 43.4628 23.5841C42.6833 23.3783 41.9232 23.1488 41.1755 22.9094C42.6318 21.6807 44.0437 20.3837 45.4114 19.0184C45.5071 18.9225 45.5754 18.8037 45.6097 18.6739C45.644 18.5441 45.6429 18.4078 45.6067 18.2785C45.5704 18.1492 45.5002 18.0315 45.4031 17.937C45.306 17.8425 45.1852 17.7745 45.053 17.7399C44.0062 17.4661 42.9209 17.1195 41.8245 16.7406C43.614 15.2841 45.3256 13.7383 46.9525 12.1093C47.0467 12.0128 47.1137 11.8941 47.1472 11.7647C47.1806 11.6353 47.1792 11.4997 47.1432 11.3709C47.1072 11.2422 47.0377 11.1248 46.9416 11.0302C46.8455 10.9355 46.7261 10.8668 46.5948 10.8307ZM41.7624 24.7067C36.1459 30.1944 29.4822 34.5476 22.1504 37.5186C14.6111 31.7438 7.97084 24.9251 2.43839 17.2772C3.85701 17.4036 5.2819 17.4495 6.70593 17.4146C11.5224 23.282 17.0348 28.5676 23.1269 33.1598C23.2339 33.2398 23.3601 33.2914 23.4934 33.3098C23.6267 33.3282 23.7625 33.3127 23.8879 33.2648C29.6366 31.0201 34.9946 27.9155 39.7707 24.0619C40.4222 24.2861 41.0813 24.5064 41.7624 24.7067ZM43.3552 18.8632C37.7366 24.3557 31.0667 28.7095 23.7275 31.6754C16.185 25.9007 9.54244 19.0805 4.00937 11.4299C5.71639 11.5845 7.43218 11.6253 9.14485 11.5519C13.7399 17.0065 18.9482 21.9367 24.6711 26.2493C24.7781 26.3291 24.9043 26.3806 25.0375 26.3989C25.1707 26.4172 25.3064 26.4017 25.4317 26.3539C30.8136 24.2559 35.8533 21.3988 40.3907 17.8731C41.3912 18.2404 42.3841 18.5764 43.3552 18.8632ZM25.2709 24.7644C17.7315 18.9869 11.0894 12.1678 5.5524 4.52079C12.1785 5.02905 18.8354 4.04292 25.0112 1.63822C31.6115 6.51138 38.45 10.0565 44.8955 11.9541C39.2764 17.444 32.608 21.797 25.2709 24.7644Z" fill="white"/>
</svg>
